<?xml version="1.0" encoding="utf-8"?>
<!-- Generator: Adobe Illustrator 16.0.0, SVG Export Plug-In . SVG Version: 6.00 Build 0)  -->
<!DOCTYPE svg PUBLIC "-//W3C//DTD SVG 1.1//EN" "http://www.w3.org/Graphics/SVG/1.1/DTD/svg11.dtd">
<svg version="1.1" id="Layer_1" xmlns="http://www.w3.org/2000/svg" xmlns:xlink="http://www.w3.org/1999/xlink" x="0px" y="0px"
	 width="45.3px" height="41.9px" viewBox="0 0 45.3 41.9" enable-background="new 0 0 45.3 41.9" xml:space="preserve">
<g>
	<path fill="#FA2A4A" stroke="#FA2A4A" stroke-width="1.3864" stroke-miterlimit="10" d="M20.8,41.2C9.9,41.2,0.7,32.1,0.7,21
		C0.7,9.9,9.9,0.7,20.8,0.7c10.9,0,20.1,9.1,20.1,20.3C40.8,32.1,31.6,41.2,20.8,41.2z M20.8,3.2C11.1,3.2,3.3,11.3,3.3,21
		c0,9.7,7.9,17.8,17.5,17.8c9.6,0,17.5-8.1,17.5-17.8C38.2,11.3,30.4,3.2,20.8,3.2z"/>
</g>
<g>
	<g>
		<path fill="#2A2A2A" stroke="#2A2A2A" stroke-width="1.3864" stroke-miterlimit="10" d="M24.5,41.2C13.7,41.2,4.5,32,4.5,21
			c0-11.1,9.2-20.3,20.1-20.3c10.9,0,20.1,9.1,20.1,20.3C44.6,32,35.4,41.2,24.5,41.2z M24.5,3.1C14.9,3.1,7.1,11.2,7.1,21
			c0,9.7,7.9,17.8,17.5,17.8C34.1,38.8,42,30.7,42,21C42,11.2,34.2,3.1,24.5,3.1z"/>
	</g>
</g>
<g>
	<path fill="#FA2A4A" stroke="#FA2A4A" stroke-width="0.6932" stroke-miterlimit="10" d="M38.2,21c0,9.7-7.9,17.8-17.5,17.8
		c-9.6,0-17.5-8.2-17.5-17.8c0-0.3-2.6-0.4-2.6,0c0,11.1,9.2,20.2,20.1,20.2c10.8,0,20.1-9.1,20.1-20.2C40.8,20.7,38.2,20.8,38.2,21
		z"/>
</g>
</svg>
